<?xml version="1.0" encoding="utf-8"?>
<!-- Generator: Adobe Illustrator 16.0.0, SVG Export Plug-In . SVG Version: 6.00 Build 0)  -->
<!DOCTYPE svg PUBLIC "-//W3C//DTD SVG 1.1//EN" "http://www.w3.org/Graphics/SVG/1.1/DTD/svg11.dtd">
<svg version="1.1" id="图层_1" xmlns="http://www.w3.org/2000/svg" xmlns:xlink="http://www.w3.org/1999/xlink" x="0px" y="0px"
	 width="30px" height="30px" viewBox="0 0 30 30" enable-background="new 0 0 30 30" xml:space="preserve">
<g id="图层_1_1_" display="none">
	<path display="inline" fill="#D4BD68" d="M26.729,13.227c-0.041-0.368-0.276-1.531-0.578-2.167c-0.297-0.636-0.99-1.75-1.656-2.416
		c-0.667-0.666-2.514-2.251-4.747-2.907c-2.236-0.657-4.383-0.82-6.322-0.448c-1.938,0.373-3.579,1.029-4.519,1.67
		c-0.939,0.642-2.4,1.64-3.161,2.967c-0.76,1.327-1.332,2.744-1.213,4.632c0.119,1.887,1.252,4.096,2.823,5.447
		c1.349,1.161,2.729,1.834,3.071,1.953c0.343,0.119,1.566,0.567,2.163,0.672c0.596,0.104,0.7,0.134,0.984,0.164
		c0.283,0.029,0.865,0.134,1.103,0.507c0.239,0.372,0.179,0.954,0.09,1.342c-0.09,0.391-0.194,1.178-0.06,1.297
		c0.134,0.119,0.417,0.119,0.745,0c0.326-0.119,1.347-0.653,1.516-0.766c0.169-0.107,0.954-0.605,1.192-0.744
		c0.237-0.14,1.032-0.656,1.151-0.736c0.119-0.077,0.756-0.524,0.953-0.676c0.199-0.146,1.521-1.072,1.592-1.134
		c0.068-0.06,1.133-0.975,1.291-1.133c0.16-0.159,1.017-0.983,1.146-1.124c0.13-0.139,0.915-1.043,1.018-1.184
		c0.098-0.139,0.725-1.112,0.805-1.271c0.08-0.158,0.248-0.636,0.318-0.854c0.066-0.219,0.285-1.074,0.299-1.604
		C26.736,14.191,26.768,13.594,26.729,13.227z M11.616,16.423v0.009v0.006c-0.005,0.129-0.056,0.242-0.153,0.347
		c-0.097,0.103-0.229,0.151-0.397,0.151H9.158c-0.189,0-0.335-0.057-0.439-0.168c-0.104-0.113-0.157-0.264-0.157-0.451v-0.008
		v-4.267c0-0.188,0.055-0.333,0.165-0.436c0.109-0.102,0.246-0.153,0.408-0.153c0.163,0,0.299,0.051,0.409,0.153
		s0.164,0.25,0.164,0.444v3.831h1.359c0.173,0.006,0.303,0.057,0.389,0.152c0.086,0.098,0.138,0.201,0.153,0.313
		c0.005,0.016,0.008,0.029,0.008,0.043L11.616,16.423L11.616,16.423z M13.571,16.384c0,0.194-0.055,0.343-0.164,0.443
		c-0.11,0.103-0.246,0.153-0.409,0.153s-0.299-0.051-0.409-0.153c-0.109-0.103-0.164-0.247-0.164-0.437v-0.01V12.04
		c0-0.188,0.055-0.333,0.164-0.436c0.109-0.103,0.246-0.153,0.409-0.153s0.299,0.051,0.409,0.153
		c0.109,0.102,0.164,0.25,0.164,0.444V16.384z M19.012,16.384c0,0.194-0.056,0.343-0.164,0.443
		c-0.108,0.103-0.246,0.153-0.408,0.153c-0.028,0-0.063-0.006-0.101-0.019c-0.034-0.01-0.071-0.021-0.106-0.028
		c-0.051-0.021-0.102-0.05-0.149-0.084c-0.054-0.035-0.094-0.072-0.123-0.113l-2.42-3.199h-0.017v2.848
		c0,0.193-0.056,0.342-0.165,0.443s-0.246,0.152-0.408,0.152c-0.163,0-0.299-0.051-0.409-0.153
		c-0.109-0.103-0.164-0.247-0.164-0.437v-0.01V12.04c0-0.188,0.055-0.333,0.164-0.436s0.246-0.153,0.409-0.153
		c0.03,0,0.063,0.004,0.099,0.012c0.036,0.007,0.071,0.019,0.107,0.034c0.05,0.025,0.102,0.056,0.152,0.091
		c0.051,0.036,0.092,0.074,0.123,0.115l2.419,3.222h0.016V12.04c0-0.188,0.055-0.333,0.164-0.436
		c0.109-0.102,0.246-0.152,0.408-0.152c0.164,0,0.299,0.051,0.41,0.153c0.105,0.102,0.161,0.25,0.161,0.444L19.012,16.384
		L19.012,16.384z M22.826,16.427v0.011c-0.004,0.129-0.053,0.242-0.145,0.347c-0.095,0.103-0.227,0.151-0.396,0.151h-1.971
		c-0.168,0-0.31-0.052-0.42-0.151c-0.111-0.104-0.168-0.238-0.168-0.412v-0.011v-4.195c0-0.188,0.049-0.345,0.146-0.47
		c0.096-0.125,0.246-0.187,0.45-0.187l1.894-0.008c0.183,0.005,0.318,0.063,0.408,0.172c0.088,0.109,0.133,0.23,0.133,0.363v0.011
		v0.012c-0.004,0.127-0.053,0.243-0.146,0.347c-0.092,0.104-0.225,0.157-0.396,0.157l-1.344-0.008v1.115h1.252
		c0.188,0.005,0.328,0.063,0.42,0.172c0.091,0.109,0.139,0.23,0.139,0.362v0.012v0.011c-0.007,0.127-0.057,0.243-0.147,0.348
		c-0.095,0.105-0.229,0.156-0.408,0.156h-1.252v1.153h1.412c0.183,0.007,0.317,0.063,0.407,0.175
		c0.09,0.106,0.134,0.229,0.134,0.359L22.826,16.427L22.826,16.427z"/>
</g>
<g id="图层_2" display="none">
	<path id="XMLID_19_" display="inline" fill="#D4BD68" d="M16.342,11.289V9.804c0-0.723,0.48-0.892,0.818-0.892
		c0.34,0,2.084,0,2.084,0V5.735l-2.869-0.013c-3.182,0-3.905,2.371-3.905,3.89v1.677h-1.84V15h1.855c0,4.206,0,9.277,0,9.277h3.71
		c0,0,0-5.123,0-9.277h2.755l0.34-3.712L16.342,11.289L16.342,11.289z"/>
</g>
<g id="图层_3" display="none">
	<g display="inline">
		<g>
			<g>
				<circle fill="#D4BD68" cx="14.641" cy="9.56" r="4.827"/>
			</g>
			<g>
				<path fill="#D4BD68" d="M14.641,15.194c-4.703,0-8.515,4.126-8.515,9.218h17.031C23.156,19.32,19.343,15.194,14.641,15.194z"/>
			</g>
		</g>
	</g>
</g>
<g id="图层_4">
	<path d="M26.122,8.951c-0.356-0.515-0.944-0.823-1.572-0.823H12.684c-0.443,0-0.802,0.36-0.802,0.803
		c0,0.442,0.359,0.802,0.802,0.802H24.55c0.103,0,0.197,0.049,0.255,0.134c0.059,0.083,0.071,0.189,0.036,0.284l-2.225,5.985
		c-0.046,0.121-0.162,0.203-0.291,0.203H9.857L7.872,7.864C7.624,6.813,6.697,6.077,5.615,6.077H3.404
		C2.739,6.077,2.2,6.616,2.2,7.281c0,0.665,0.539,1.203,1.204,1.203h2.139l2.674,11.411c0.243,1.032,1.14,1.756,2.193,1.785
		c-0.619,0.448-1.026,1.172-1.026,1.995c0,1.367,1.108,2.478,2.475,2.478c1.366,0,2.475-1.107,2.475-2.478
		c0-0.819-0.404-1.541-1.02-1.991h4.618c-0.615,0.45-1.021,1.172-1.021,1.991c0,1.367,1.108,2.478,2.474,2.478
		c1.367,0,2.477-1.107,2.477-2.478c0-0.819-0.401-1.541-1.021-1.991h1.123c0.666,0,1.203-0.539,1.203-1.203
		c0-0.666-0.537-1.205-1.203-1.205H10.545l-0.312-1.33h12.092c0.795,0,1.518-0.502,1.795-1.25l2.226-5.983
		C26.563,10.122,26.479,9.463,26.122,8.951L26.122,8.951z"/>
</g>
<g id="图层_5" display="none">
	<path display="inline" fill="#D4BD68" d="M15,4.248C9.062,4.248,4.248,9.062,4.248,15c0,5.938,4.814,10.751,10.753,10.751
		c5.938,0,10.752-4.813,10.752-10.751C25.753,9.062,20.939,4.248,15,4.248z M19.764,23.574c-1.543,0.727-3.631,0.637-3.631,0.637
		l0.182-1.725l1.09-0.818L15.5,20.852l-1-1.451l-1.904-0.635l-1.36-1.182l-1.361-2.358l-1.089-1.089c0,0-1.362-1.27-1.362-1.542
		S7.241,9.783,7.241,9.783L7.56,9.239c0.726-1.815,1.791-2.177,3.787-2.813c1.997-0.635,3.709-0.046,4.617,0.045
		c0.907,0.09,0.946,0.841,0.038,1.203c-0.906,0.363-1.884,0.918-1.884,0.918l0.827,0.732l1.458,0.728l0.033,0.819l0.215-1.269V7.878
		c0,0,2.104,0.454,2.736,0.907c0.633,0.454,2.139,1.634,1.777,2.178c-0.364,0.544-1.381,0.635-1.381,0.635l-1.235,1.271
		l-0.164,0.906l-0.808,0.817l-0.721,1.213l-0.725,0.229l-2.114-0.989l-1.324,1.454v1.185l2.718,0.358l0.948,1.09l1.291,0.728
		l3.277,0.271l0.459,0.908l1.002,0.18C22.393,21.215,21.305,22.848,19.764,23.574z"/>
</g>
</svg>
